<svg width="32" height="32" viewBox="0 0 32 32" fill="none" xmlns="http://www.w3.org/2000/svg">
<path d="M29 17.0825C28.7875 19.5525 27.8741 21.9104 26.3671 23.8788C24.86 25.8473 22.8222 27.3444 20.4932 28.194C18.1643 29.0436 15.6411 29.2103 13.2206 28.6746C10.8 28.139 8.58287 26.9231 6.82989 25.1701C5.07691 23.4171 3.86105 21.2 3.32537 18.7794C2.78968 16.3589 2.95644 13.8358 3.80604 11.5068C4.65564 9.17784 6.15273 7.13997 8.12118 5.63296C10.0896 4.12594 12.4475 3.21247 14.9175 3.00001C15.0488 2.98918 15.181 3.00431 15.3065 3.04456C15.4319 3.0848 15.5483 3.14937 15.6488 3.23457C15.7493 3.31976 15.832 3.42393 15.8923 3.54111C15.9526 3.65829 15.9892 3.78619 16 3.91751C16.0108 4.04883 15.9957 4.181 15.9555 4.30647C15.9152 4.43194 15.8506 4.54826 15.7654 4.64878C15.6802 4.7493 15.5761 4.83205 15.4589 4.89232C15.3417 4.95258 15.2138 4.98918 15.0825 5.00001C12.992 5.17963 10.9963 5.95259 9.33014 7.22796C7.66402 8.50333 6.39683 10.228 5.67766 12.1992C4.95849 14.1703 4.81727 16.3058 5.27061 18.3545C5.72395 20.4031 6.75299 22.2797 8.23666 23.7634C9.72032 25.247 11.5969 26.2761 13.6455 26.7294C15.6942 27.1827 17.8297 27.0415 19.8008 26.3224C21.772 25.6032 23.4967 24.336 24.772 22.6699C26.0474 21.0038 26.8204 19.008 27 16.9175C27.0219 16.6523 27.1482 16.4066 27.3512 16.2346C27.5542 16.0625 27.8173 15.9781 28.0825 16C28.3477 16.0219 28.5934 16.1482 28.7654 16.3512C28.9375 16.5542 29.0219 16.8173 29 17.0825ZM15 9.00001V16C15 16.2652 15.1054 16.5196 15.2929 16.7071C15.4804 16.8947 15.7348 17 16 17H23C23.2652 17 23.5196 16.8947 23.7071 16.7071C23.8946 16.5196 24 16.2652 24 16C24 15.7348 23.8946 15.4804 23.7071 15.2929C23.5196 15.1054 23.2652 15 23 15H17V9.00001C17 8.73479 16.8946 8.48044 16.7071 8.2929C16.5196 8.10537 16.2652 8.00001 16 8.00001C15.7348 8.00001 15.4804 8.10537 15.2929 8.2929C15.1054 8.48044 15 8.73479 15 9.00001ZM20 6.00001C20.2967 6.00001 20.5867 5.91204 20.8334 5.74721C21.08 5.58239 21.2723 5.34812 21.3858 5.07404C21.4994 4.79995 21.5291 4.49835 21.4712 4.20737C21.4133 3.9164 21.2704 3.64913 21.0607 3.43935C20.8509 3.22957 20.5836 3.08671 20.2926 3.02883C20.0017 2.97095 19.7001 3.00066 19.426 3.11419C19.1519 3.22772 18.9176 3.41998 18.7528 3.66665C18.588 3.91333 18.5 4.20334 18.5 4.50001C18.5 4.89783 18.658 5.27937 18.9393 5.56067C19.2206 5.84197 19.6022 6.00001 20 6.00001ZM24.5 9.00001C24.7967 9.00001 25.0867 8.91204 25.3334 8.74721C25.58 8.58239 25.7723 8.34812 25.8858 8.07404C25.9994 7.79995 26.0291 7.49835 25.9712 7.20737C25.9133 6.9164 25.7704 6.64913 25.5607 6.43935C25.3509 6.22957 25.0836 6.08671 24.7926 6.02883C24.5017 5.97095 24.2001 6.00066 23.926 6.11419C23.6519 6.22772 23.4176 6.41998 23.2528 6.66665C23.088 6.91333 23 7.20334 23 7.50001C23 7.89783 23.158 8.27937 23.4393 8.56067C23.7206 8.84197 24.1022 9.00001 24.5 9.00001ZM27.5 13.5C27.7967 13.5 28.0867 13.412 28.3334 13.2472C28.58 13.0824 28.7723 12.8481 28.8858 12.574C28.9994 12.2999 29.0291 11.9983 28.9712 11.7074C28.9133 11.4164 28.7704 11.1491 28.5607 10.9393C28.3509 10.7296 28.0836 10.5867 27.7926 10.5288C27.5017 10.471 27.2001 10.5007 26.926 10.6142C26.6519 10.7277 26.4176 10.92 26.2528 11.1667C26.088 11.4133 26 11.7033 26 12C26 12.3978 26.158 12.7794 26.4393 13.0607C26.7206 13.342 27.1022 13.5 27.5 13.5Z" fill="#343330"/>
</svg>
