<svg width="28" height="28" viewBox="0 0 28 28" fill="none" xmlns="http://www.w3.org/2000/svg">
<path d="M5.73562 3.9375C5.61549 3.82599 5.45796 3.76347 5.29405 3.76226C5.13014 3.76104 4.97171 3.82121 4.84993 3.93092C4.72814 4.04063 4.65183 4.19195 4.636 4.3551C4.62016 4.51825 4.66596 4.68142 4.76437 4.8125L9.15906 9.64687C9.10984 9.74203 9.06062 9.83828 9.01469 9.93562C8.09097 9.78205 7.14547 9.82145 6.23773 10.0513C5.33 10.2812 4.47971 10.6966 3.74044 11.2713C3.00117 11.8461 2.38894 12.5677 1.94232 13.3907C1.4957 14.2137 1.22438 15.1203 1.14543 16.0534C1.06649 16.9864 1.18165 17.9257 1.48364 18.8121C1.78564 19.6984 2.26793 20.5126 2.90013 21.2034C3.53234 21.8942 4.30075 22.4465 5.15696 22.8256C6.01317 23.2048 6.93862 23.4024 7.875 23.4063H17.5C18.713 23.409 19.9149 23.1749 21.0383 22.7172L22.2644 24.0625C22.3816 24.1913 22.5451 24.2683 22.7191 24.2765C22.893 24.2847 23.0631 24.2234 23.1919 24.1062C23.3207 23.9891 23.3976 23.8255 23.4058 23.6516C23.414 23.4776 23.3528 23.3075 23.2356 23.1788L5.73562 3.9375ZM17.5 22.0938H7.875C7.12879 22.0951 6.39021 21.9437 5.70471 21.6489C5.01921 21.354 4.4013 20.9221 3.889 20.3795C3.3767 19.8369 2.98086 19.1953 2.72584 18.494C2.47082 17.7927 2.36202 17.0467 2.40613 16.3018C2.45024 15.5569 2.64632 14.8289 2.98232 14.1626C3.31832 13.4963 3.78712 12.9058 4.35986 12.4275C4.93261 11.9492 5.59718 11.5931 6.31269 11.3813C7.02819 11.1694 7.77948 11.1063 8.52031 11.1956C8.23759 12.1036 8.09378 13.0491 8.09375 14C8.09375 14.174 8.16289 14.341 8.28596 14.464C8.40903 14.5871 8.57595 14.6562 8.75 14.6562C8.92405 14.6562 9.09097 14.5871 9.21404 14.464C9.33711 14.341 9.40625 14.174 9.40625 14C9.40589 12.8616 9.64591 11.7361 10.1106 10.6969L20.0878 21.6716C19.2541 21.9527 18.3799 22.0953 17.5 22.0938ZM26.9062 14C26.9076 16.3109 26.0567 18.5412 24.5164 20.2639C24.4549 20.3327 24.3795 20.3877 24.2953 20.4254C24.211 20.4631 24.1198 20.4826 24.0275 20.4827C23.9008 20.4826 23.7769 20.4459 23.6706 20.377C23.5644 20.3081 23.4803 20.2099 23.4286 20.0942C23.3769 19.9786 23.3598 19.8505 23.3793 19.7253C23.3988 19.6001 23.4542 19.4833 23.5386 19.3889C24.8699 17.8963 25.6014 15.9636 25.592 13.9635C25.5826 11.9634 24.833 10.0377 23.4877 8.55761C22.1425 7.07755 20.2968 6.148 18.3067 5.94823C16.3166 5.74847 14.3231 6.29263 12.7105 7.47578C12.641 7.52684 12.5622 7.56373 12.4785 7.58432C12.3948 7.60492 12.3079 7.60883 12.2226 7.59583C12.1374 7.58283 12.0556 7.55318 11.9819 7.50856C11.9081 7.46394 11.8439 7.40523 11.7928 7.33578C11.7418 7.26633 11.7049 7.18751 11.6843 7.10381C11.6637 7.02011 11.6598 6.93317 11.6728 6.84796C11.699 6.67586 11.7926 6.52125 11.9328 6.41812C13.3343 5.38902 14.9937 4.76853 16.7265 4.62555C18.4594 4.48257 20.198 4.8227 21.7492 5.60818C23.3004 6.39365 24.6036 7.59372 25.514 9.07511C26.4243 10.5565 26.9063 12.2612 26.9062 14Z" fill="#343330"/>
</svg>
