<svg width="28" height="28" viewBox="0 0 28 28" fill="none" xmlns="http://www.w3.org/2000/svg">
<path d="M20.5887 17.9638C20.4657 18.0866 20.2989 18.1557 20.125 18.1557C19.9511 18.1557 19.7843 18.0866 19.6612 17.9638L17.2812 15.5848V22.75C17.2812 22.9241 17.2121 23.091 17.089 23.214C16.966 23.3371 16.799 23.4063 16.625 23.4063C16.4509 23.4063 16.284 23.3371 16.161 23.214C16.0379 23.091 15.9687 22.9241 15.9687 22.75V15.5848L13.5887 17.9638C13.4643 18.0797 13.2998 18.1428 13.1298 18.1398C12.9598 18.1368 12.7976 18.0679 12.6773 17.9477C12.5571 17.8274 12.4882 17.6652 12.4852 17.4952C12.4822 17.3252 12.5453 17.1607 12.6612 17.0363L16.1612 13.5363C16.2843 13.4134 16.4511 13.3443 16.625 13.3443C16.7989 13.3443 16.9657 13.4134 17.0887 13.5363L20.5887 17.0363C20.7116 17.1593 20.7807 17.3261 20.7807 17.5C20.7807 17.6739 20.7116 17.8407 20.5887 17.9638ZM17.5 4.59375C15.7258 4.59518 13.9881 5.09778 12.4871 6.04364C10.986 6.9895 9.78274 8.34015 9.01578 9.94C8.09052 9.78243 7.14263 9.81864 6.23209 10.0464C5.32155 10.2741 4.4682 10.6883 3.72604 11.2629C2.98388 11.8375 2.36907 12.5598 1.92053 13.3843C1.47199 14.2088 1.19948 15.1174 1.12026 16.0526C1.04103 16.9878 1.15681 17.9293 1.46026 18.8175C1.76372 19.7056 2.24825 20.5212 2.88318 21.2124C3.51811 21.9036 4.28961 22.4555 5.14887 22.8331C6.00812 23.2108 6.93642 23.4059 7.875 23.4063H12.25C12.424 23.4063 12.591 23.3371 12.714 23.214C12.8371 23.091 12.9062 22.9241 12.9062 22.75C12.9062 22.576 12.8371 22.409 12.714 22.286C12.591 22.1629 12.424 22.0938 12.25 22.0938H7.875C6.42459 22.0938 5.0336 21.5176 4.00801 20.492C2.98242 19.4664 2.40625 18.0754 2.40625 16.625C2.40625 15.1746 2.98242 13.7836 4.00801 12.758C5.0336 11.7324 6.42459 11.1563 7.875 11.1563C8.09105 11.1568 8.30689 11.1699 8.5214 11.1956C8.23714 12.1032 8.09293 13.0489 8.09375 14C8.09375 14.1741 8.16289 14.341 8.28596 14.464C8.40903 14.5871 8.57595 14.6563 8.75 14.6563C8.92405 14.6563 9.09096 14.5871 9.21404 14.464C9.33711 14.341 9.40625 14.1741 9.40625 14C9.4068 12.5409 9.80176 11.1091 10.5494 9.85608C11.2969 8.60306 12.3694 7.57544 13.6531 6.88194C14.9369 6.18845 16.3842 5.85488 17.842 5.91653C19.2998 5.97818 20.7138 6.43276 21.9344 7.23217C23.155 8.03158 24.1368 9.14608 24.776 10.4577C25.4151 11.7694 25.6877 13.2295 25.5651 14.6834C25.4425 16.1373 24.9291 17.531 24.0792 18.7171C23.2294 19.9032 22.0748 20.8375 20.7375 21.4211C20.578 21.4907 20.4526 21.6209 20.389 21.7829C20.3254 21.9449 20.3288 22.1256 20.3984 22.2852C20.4681 22.4447 20.5982 22.5701 20.7602 22.6336C20.9223 22.6972 21.103 22.6938 21.2625 22.6242C23.2451 21.761 24.8697 20.2411 25.8628 18.3203C26.856 16.3996 27.1571 14.1953 26.7154 12.0785C26.2737 9.96181 25.1161 8.06189 23.4377 6.69863C21.7592 5.33538 19.6623 4.59204 17.5 4.59375Z" fill="#343330"/>
</svg>
